<svg width="168" height="25" viewBox="0 0 168 25" fill="none" xmlns="http://www.w3.org/2000/svg">
<path d="M18.4687 23C18.3109 23.0006 18.1568 22.9514 18.0286 22.8594L12 18.4887L5.97139 22.8594C5.84259 22.9528 5.68742 23.0028 5.52831 23.0022C5.36921 23.0017 5.21441 22.9505 5.08629 22.8561C4.95818 22.7618 4.86339 22.6291 4.81563 22.4774C4.76787 22.3256 4.76961 22.1626 4.82061 22.0119L7.17185 15.0477L1.07811 10.8687C0.946112 10.7783 0.846491 10.6481 0.793797 10.497C0.741103 10.3459 0.7381 10.182 0.785225 10.0291C0.83235 9.87619 0.927135 9.74237 1.05573 9.64718C1.18432 9.55199 1.33999 9.50042 1.49998 9.5H9.01779L11.2865 2.51797C11.3354 2.36723 11.4308 2.23584 11.5589 2.14266C11.6871 2.04947 11.8415 1.99928 12 1.99928C12.1584 1.99928 12.3128 2.04947 12.441 2.14266C12.5692 2.23584 12.6645 2.36723 12.7134 2.51797L14.9822 9.50234H22.5C22.6602 9.50226 22.8162 9.55348 22.9452 9.64848C23.0741 9.74349 23.1693 9.8773 23.2167 10.0303C23.2641 10.1833 23.2613 10.3475 23.2087 10.4988C23.156 10.6501 23.0563 10.7806 22.9242 10.8711L16.8281 15.0477L19.1779 22.01C19.216 22.1227 19.2267 22.2429 19.2092 22.3606C19.1916 22.4782 19.1464 22.59 19.0771 22.6868C19.0078 22.7835 18.9165 22.8623 18.8107 22.9168C18.7049 22.9713 18.5877 22.9998 18.4687 23Z" fill="#12805D"/>
<path d="M50.4687 23C50.3109 23.0006 50.1568 22.9514 50.0286 22.8594L44 18.4887L37.9714 22.8594C37.8426 22.9528 37.6874 23.0028 37.5283 23.0022C37.3692 23.0017 37.2144 22.9505 37.0863 22.8561C36.9582 22.7618 36.8634 22.6291 36.8156 22.4774C36.7679 22.3256 36.7696 22.1626 36.8206 22.0119L39.1719 15.0477L33.0781 10.8687C32.9461 10.7783 32.8465 10.6481 32.7938 10.497C32.7411 10.3459 32.7381 10.182 32.7852 10.0291C32.8324 9.87619 32.9271 9.74237 33.0557 9.64718C33.1843 9.55199 33.34 9.50042 33.5 9.5H41.0178L43.2865 2.51797C43.3354 2.36723 43.4308 2.23584 43.5589 2.14266C43.6871 2.04947 43.8415 1.99928 44 1.99928C44.1584 1.99928 44.3128 2.04947 44.441 2.14266C44.5692 2.23584 44.6645 2.36723 44.7134 2.51797L46.9822 9.50234H54.5C54.6602 9.50226 54.8162 9.55348 54.9452 9.64848C55.0741 9.74349 55.1693 9.8773 55.2167 10.0303C55.2641 10.1833 55.2613 10.3475 55.2087 10.4988C55.156 10.6501 55.0563 10.7806 54.9242 10.8711L48.8281 15.0477L51.1779 22.01C51.216 22.1227 51.2267 22.2429 51.2092 22.3606C51.1916 22.4782 51.1464 22.59 51.0771 22.6868C51.0078 22.7835 50.9165 22.8623 50.8107 22.9168C50.7049 22.9713 50.5877 22.9998 50.4687 23Z" fill="#12805D"/>
<path d="M82.4687 23C82.3109 23.0006 82.1568 22.9514 82.0286 22.8594L76 18.4887L69.9714 22.8594C69.8426 22.9528 69.6874 23.0028 69.5283 23.0022C69.3692 23.0017 69.2144 22.9505 69.0863 22.8561C68.9582 22.7618 68.8634 22.6291 68.8156 22.4774C68.7679 22.3256 68.7696 22.1626 68.8206 22.0119L71.1719 15.0477L65.0781 10.8687C64.9461 10.7783 64.8465 10.6481 64.7938 10.497C64.7411 10.3459 64.7381 10.182 64.7852 10.0291C64.8324 9.87619 64.9271 9.74237 65.0557 9.64718C65.1843 9.55199 65.34 9.50042 65.5 9.5H73.0178L75.2865 2.51797C75.3354 2.36723 75.4308 2.23584 75.5589 2.14266C75.6871 2.04947 75.8415 1.99928 76 1.99928C76.1584 1.99928 76.3128 2.04947 76.441 2.14266C76.5692 2.23584 76.6645 2.36723 76.7134 2.51797L78.9822 9.50234H86.5C86.6602 9.50226 86.8162 9.55348 86.9452 9.64848C87.0741 9.74349 87.1693 9.8773 87.2167 10.0303C87.2641 10.1833 87.2613 10.3475 87.2087 10.4988C87.156 10.6501 87.0563 10.7806 86.9242 10.8711L80.8281 15.0477L83.1779 22.01C83.216 22.1227 83.2267 22.2429 83.2092 22.3606C83.1916 22.4782 83.1464 22.59 83.0771 22.6868C83.0078 22.7835 82.9165 22.8623 82.8107 22.9168C82.7049 22.9713 82.5877 22.9998 82.4687 23Z" fill="#12805D"/>
<path d="M114.469 23C114.311 23.0006 114.157 22.9514 114.029 22.8594L108 18.4887L101.971 22.8594C101.843 22.9528 101.687 23.0028 101.528 23.0022C101.369 23.0017 101.214 22.9505 101.086 22.8561C100.958 22.7618 100.863 22.6291 100.816 22.4774C100.768 22.3256 100.77 22.1626 100.821 22.0119L103.172 15.0477L97.0781 10.8687C96.9461 10.7783 96.8465 10.6481 96.7938 10.497C96.7411 10.3459 96.7381 10.182 96.7852 10.0291C96.8324 9.87619 96.9271 9.74237 97.0557 9.64718C97.1843 9.55199 97.34 9.50042 97.5 9.5H105.018L107.287 2.51797C107.335 2.36723 107.431 2.23584 107.559 2.14266C107.687 2.04947 107.842 1.99928 108 1.99928C108.158 1.99928 108.313 2.04947 108.441 2.14266C108.569 2.23584 108.665 2.36723 108.713 2.51797L110.982 9.50234H118.5C118.66 9.50226 118.816 9.55348 118.945 9.64848C119.074 9.74349 119.169 9.8773 119.217 10.0303C119.264 10.1833 119.261 10.3475 119.209 10.4988C119.156 10.6501 119.056 10.7806 118.924 10.8711L112.828 15.0477L115.178 22.01C115.216 22.1227 115.227 22.2429 115.209 22.3606C115.192 22.4782 115.146 22.59 115.077 22.6868C115.008 22.7835 114.916 22.8623 114.811 22.9168C114.705 22.9713 114.588 22.9998 114.469 23Z" fill="#12805D"/>
<path d="M150.5 10.25H142.438L140 2.75L137.562 10.25H129.5L136.062 14.75L133.531 22.25L140 17.5625L146.469 22.25L143.938 14.75L150.5 10.25Z" stroke="#12805D" stroke-width="2" stroke-linejoin="round"/>
<path d="M140 2.75V17.5625L133.531 22.25L136.062 14.75L129.5 10.25H137.562L140 2.75Z" fill="#12805D"/>
</svg>
